<svg id="Layer_1" data-name="Layer 1" xmlns="http://www.w3.org/2000/svg" viewBox="0 0 600 90.86"><defs><style>.cls-1{fill:#fff;}</style></defs><path class="cls-1" d="M170.41,33.77c-9.44-3.68-13.92-5.84-13.86-11s4.23-8.26,9.89-8.26c3.58,0,7.55,1.21,11.93,3.83v7l4.17-4.17h0l11-11c-8-6.53-17.42-10.32-27.52-10.2-14.76.17-26.4,10.29-26.4,23.53,0,15.5,12.43,21.26,24.87,25.61,9.95,3.45,14.32,5.6,14.32,11.65,0,5.09-4,8.71-11.84,8.71a26.11,26.11,0,0,1-15-5.31V56.31l-4.58,4.58h0L136.9,71.4a41.44,41.44,0,0,0,29.83,12.81c13.46,0,29.12-7.36,29.12-25.34C195.85,43,184.6,39.3,170.41,33.77Z"/><path class="cls-1" d="M33.5,33.77c-9.44-3.68-13.91-5.84-13.85-11s4.23-8.26,9.89-8.26c3.58,0,7.54,1.21,11.93,3.83v7l4.17-4.17h0l11-11C48.68,3.67,39.25-.12,29.15,0,14.39.17,2.74,10.29,2.74,23.53c0,15.5,12.43,21.26,24.88,25.61,10,3.45,14.31,5.6,14.31,11.65,0,5.09-4,8.71-11.83,8.71a26.11,26.11,0,0,1-15-5.31V56.31L10.5,60.89h0L0,71.4A41.42,41.42,0,0,0,29.83,84.21C43.28,84.21,59,76.85,59,58.87,59,43,47.7,39.3,33.5,33.77Z"/><path class="cls-1" d="M247.93,1l6.49,6.5V48.12c0,13.12-7.18,20.81-17.13,20.81-10.8,0-16.85-9-16.85-20.81V1H197.62l6.47,6.47V49.2c0,22.45,13.41,35,33.2,35,21.15,0,33.42-13.62,33.42-35V1Z"/><path class="cls-1" d="M90.94,1H60.88L67.31,7.4V76.81l-6.43,6.43h30.4c26.47,0,42.36-16.74,42.36-41S117,1,90.94,1Zm-.68,67.75H83.37V15.55h7.91c14.82,0,25.45,11.25,25.45,26.69C116.73,57.28,106.27,68.71,90.26,68.71Z"/><path class="cls-1" d="M337.37,40.92a17.61,17.61,0,0,1-5-.67,11.13,11.13,0,0,1-3.74-1.78l-.29-6.1h2q1.89,6.54,7.07,6.55a6,6,0,0,0,3.83-1.11,3.66,3.66,0,0,0,1.4-3,3.52,3.52,0,0,0-1.26-2.92,18.17,18.17,0,0,0-5-2.29,18.14,18.14,0,0,1-5.76-3,6.1,6.1,0,0,1-2.06-4.94,6.5,6.5,0,0,1,2.52-5.27,10.34,10.34,0,0,1,6.72-2,13.29,13.29,0,0,1,7.59,2.27v5.64h-1.78q-1.59-5.91-6.37-5.91a4.46,4.46,0,0,0-3.2,1.08A3.7,3.7,0,0,0,333,20.21,3.5,3.5,0,0,0,334.12,23a16.7,16.7,0,0,0,5,2.3A17.12,17.12,0,0,1,345,28.35a6.62,6.62,0,0,1,2,5.23A6.24,6.24,0,0,1,344.25,39,11.54,11.54,0,0,1,337.37,40.92Z"/><path class="cls-1" d="M366.53,38.06a6.27,6.27,0,0,0,1.69-.23l.22,1.18a5.84,5.84,0,0,1-4.19,1.91c-1.83,0-3-1.12-3.47-3.35q-2.76,3.32-6.06,3.31a4.68,4.68,0,0,1-3.65-1.4,5.26,5.26,0,0,1-1.28-3.67,4.28,4.28,0,0,1,1.36-3.43,11.05,11.05,0,0,1,3.7-2l5.82-2.11V26.36c0-2.68-1.05-4-3.16-4-1.79,0-2.68.87-2.67,2.6a9.46,9.46,0,0,0,.25,2.09l-3.46.49a2.41,2.41,0,0,1-1.14-2.17,4,4,0,0,1,2.09-3.6A10.17,10.17,0,0,1,358,20.45q7.11,0,7.11,6.72L365,35.74C365,37.29,365.52,38.06,366.53,38.06Zm-12.28-3.37c0,2.12,1,3.17,3,3.17a6.08,6.08,0,0,0,3.43-1.28V30.11l-4.29,1.68A2.93,2.93,0,0,0,354.25,34.69Z"/><path class="cls-1" d="M384.7,36.8V26.86a3.42,3.42,0,0,0-.74-2.45,3.2,3.2,0,0,0-2.36-.75,8.19,8.19,0,0,0-4.82,1.58V36.8c0,.79.19,1.31.58,1.55a5.6,5.6,0,0,0,2,.56v1.65h-9.67V38.91a12.73,12.73,0,0,0,1.46-.29A1.75,1.75,0,0,0,372,38a1.89,1.89,0,0,0,.36-1.24v-12l-2.46-1.58v-.92l5.9-1.91h1v3.76q3.54-3.69,7.07-3.69,5.31,0,5.31,6.05V36.8c0,.79.19,1.31.59,1.55a5.88,5.88,0,0,0,2.07.56v1.65h-9.73V38.91a5.28,5.28,0,0,0,2-.54C384.49,38.13,384.68,37.61,384.7,36.8Z"/><path class="cls-1" d="M401.82,14.7h11.54q6.9,0,10.5,3.42A11.73,11.73,0,0,1,427.48,27c0,4.24-1.24,7.57-3.73,10a13.28,13.28,0,0,1-9.62,3.6H401.82V38.8a5.46,5.46,0,0,0,2.73-.6,2.35,2.35,0,0,0,.75-2.06v-17a2.31,2.31,0,0,0-.75-2.05,5.54,5.54,0,0,0-2.73-.56Zm10.71,2H410V36a2.39,2.39,0,0,0,.76,2.08,4.58,4.58,0,0,0,2.64.52H414a7.45,7.45,0,0,0,6.14-2.78q2.18-2.78,2.17-7.84a12.7,12.7,0,0,0-2.44-8.15Q417.46,16.7,412.53,16.7Z"/><path class="cls-1" d="M437.41,20.45V36.8c0,.79.19,1.31.59,1.55a6,6,0,0,0,2.07.56v1.65H430.3V38.91a12.28,12.28,0,0,0,1.46-.29,1.78,1.78,0,0,0,.83-.58A1.89,1.89,0,0,0,433,36.8V24.72l-2.47-1.55v-.88l5.9-1.84Zm-2.1-2.21a2.4,2.4,0,0,1-1.85-.81,2.76,2.76,0,0,1-.73-1.94,3.37,3.37,0,0,1,.55-2,2,2,0,0,1,1.77-.81,2.75,2.75,0,0,1,2.81,2.75,2.88,2.88,0,0,1-.72,2A2.28,2.28,0,0,1,435.31,18.24Z"/><path class="cls-1" d="M452.05,20.45A7.48,7.48,0,0,1,458,22.76a8.71,8.71,0,0,1,2,6V30H447a8.07,8.07,0,0,0,1.74,5.4,5.8,5.8,0,0,0,4.65,2,7.15,7.15,0,0,0,5.86-3l.81.49a7.74,7.74,0,0,1-2.87,4.4,9.63,9.63,0,0,1-12-1.08A10.21,10.21,0,0,1,442.64,31a10.81,10.81,0,0,1,2.71-7.51A8.68,8.68,0,0,1,452.05,20.45Zm3.61,7.63a7.27,7.27,0,0,0-1-4.11,3.37,3.37,0,0,0-3-1.52,3.77,3.77,0,0,0-3.16,1.62,7.78,7.78,0,0,0-1.42,4Z"/><path class="cls-1" d="M470.79,33.53a11.23,11.23,0,0,1-3.55-.56,3.88,3.88,0,0,0-1.38,2.43c0,.68.41,1,1.23,1h8.51q5.65,0,5.65,4.68a5.84,5.84,0,0,1-3.05,5.12,13.71,13.71,0,0,1-7.55,1.95q-9,0-9-4.5c0-1.52,1.12-2.72,3.38-3.58A3.1,3.1,0,0,1,462.76,37c0-1.51,1.19-3,3.55-4.46A5.65,5.65,0,0,1,463,27.17a6.06,6.06,0,0,1,2.19-4.9,8.76,8.76,0,0,1,5.73-1.82,10.22,10.22,0,0,1,3.41.58l6.72-.4v2.65h-1.44l-3.49-.74v.21a4.78,4.78,0,0,1,2.56,4.37,5.79,5.79,0,0,1-2.18,4.65A8.66,8.66,0,0,1,470.79,33.53Zm4.12,7.1h-9.16a2.71,2.71,0,0,0-.74,2q0,3.72,5.81,3.71a11,11,0,0,0,5-1,3,3,0,0,0,1.87-2.79,1.64,1.64,0,0,0-.68-1.53A4,4,0,0,0,474.91,40.63ZM471,31.87q3.3,0,3.3-4.65a6.14,6.14,0,0,0-1-3.58,3.19,3.19,0,0,0-2.78-1.46q-3.19,0-3.19,4.49a6.57,6.57,0,0,0,1,3.71A3.07,3.07,0,0,0,471,31.87Z"/><path class="cls-1" d="M492.45,40.92a8.7,8.7,0,0,1-6.72-2.78,10.42,10.42,0,0,1-2.54-7.28,10.55,10.55,0,0,1,2.74-7.45,9,9,0,0,1,6.91-3,8.81,8.81,0,0,1,6.75,2.78,10.43,10.43,0,0,1,2.56,7.32A10.41,10.41,0,0,1,499.39,38,9.22,9.22,0,0,1,492.45,40.92Zm0-18.29a3.85,3.85,0,0,0-3.5,2.05,11.56,11.56,0,0,0-1.15,5.61,11.75,11.75,0,0,0,1.41,6,4.2,4.2,0,0,0,3.73,2.46,3.81,3.81,0,0,0,3.51-2,11.06,11.06,0,0,0,1.17-5.6,11.79,11.79,0,0,0-1.42-6A4.25,4.25,0,0,0,492.41,22.63Z"/><path class="cls-1" d="M522,40.92a17.66,17.66,0,0,1-5-.67,11.23,11.23,0,0,1-3.74-1.78l-.29-6.1h2q1.89,6.54,7.07,6.55a6,6,0,0,0,3.83-1.11,3.66,3.66,0,0,0,1.4-3,3.52,3.52,0,0,0-1.26-2.92,18.17,18.17,0,0,0-5-2.29,18.14,18.14,0,0,1-5.76-3,6.1,6.1,0,0,1-2.06-4.94,6.5,6.5,0,0,1,2.52-5.27,10.36,10.36,0,0,1,6.72-2,13.34,13.34,0,0,1,7.6,2.27v5.64h-1.78q-1.61-5.91-6.38-5.91a4.42,4.42,0,0,0-3.19,1.08,3.66,3.66,0,0,0-1.13,2.79A3.49,3.49,0,0,0,518.76,23a16.66,16.66,0,0,0,5,2.3,17.16,17.16,0,0,1,5.87,3.08,6.59,6.59,0,0,1,2,5.23A6.24,6.24,0,0,1,528.89,39,11.54,11.54,0,0,1,522,40.92Z"/><path class="cls-1" d="M540.19,16.44v4.37h5.37V23h-5.37V35.58a2.82,2.82,0,0,0,.64,2.08,3.16,3.16,0,0,0,2.2.62,6.57,6.57,0,0,0,3.05-.79l.47,1.12a8,8,0,0,1-6,2.31c-3.24,0-4.85-1.6-4.85-4.79V23h-2.61V21.61a16.56,16.56,0,0,0,5.72-5.17Z"/><path class="cls-1" d="M565.38,38.06a6.27,6.27,0,0,0,1.69-.23l.22,1.18a5.84,5.84,0,0,1-4.19,1.91c-1.83,0-3-1.12-3.47-3.35q-2.76,3.32-6.06,3.31a4.68,4.68,0,0,1-3.65-1.4,5.26,5.26,0,0,1-1.28-3.67A4.28,4.28,0,0,1,550,32.38a11.05,11.05,0,0,1,3.7-2l5.82-2.11V26.36c0-2.68-1-4-3.16-4-1.79,0-2.68.87-2.67,2.6a9.46,9.46,0,0,0,.25,2.09l-3.46.49a2.41,2.41,0,0,1-1.14-2.17,4,4,0,0,1,2.09-3.6,10.17,10.17,0,0,1,5.44-1.28q7.11,0,7.11,6.72l-.11,8.57C563.87,37.29,564.37,38.06,565.38,38.06ZM553.1,34.69c0,2.12,1,3.17,3,3.17a6.08,6.08,0,0,0,3.43-1.28V30.11l-4.29,1.68A2.93,2.93,0,0,0,553.1,34.69Z"/><path class="cls-1" d="M574.71,16.44v4.37h5.38V23h-5.38V35.58a2.82,2.82,0,0,0,.65,2.08,3.16,3.16,0,0,0,2.2.62,6.57,6.57,0,0,0,3.05-.79l.47,1.12a8,8,0,0,1-6,2.31q-4.86,0-4.86-4.79V23h-2.6V21.61a16.56,16.56,0,0,0,5.72-5.17Z"/><path class="cls-1" d="M592,20.45a7.46,7.46,0,0,1,5.94,2.31,8.71,8.71,0,0,1,2,6V30h-13a8.07,8.07,0,0,0,1.74,5.4,5.82,5.82,0,0,0,4.65,2,7.15,7.15,0,0,0,5.86-3l.81.49a7.74,7.74,0,0,1-2.87,4.4,8.61,8.61,0,0,1-5.34,1.62,8.7,8.7,0,0,1-6.69-2.7A10.21,10.21,0,0,1,582.59,31a10.82,10.82,0,0,1,2.72-7.51A8.66,8.66,0,0,1,592,20.45Zm3.61,7.63a7.27,7.27,0,0,0-1-4.11,3.36,3.36,0,0,0-3-1.52,3.78,3.78,0,0,0-3.16,1.62,7.87,7.87,0,0,0-1.42,4Z"/><path class="cls-1" d="M335.44,61.72V74A7.61,7.61,0,0,0,337,79.12a6,6,0,0,0,4.85,1.79,7.11,7.11,0,0,0,5.06-1.68c1.18-1.13,1.78-3,1.8-5.57V61.72a2.29,2.29,0,0,0-.85-2,5.63,5.63,0,0,0-2.77-.58V57.37h9.61V59.1a5.32,5.32,0,0,0-2.7.56,2.32,2.32,0,0,0-.76,2.06V74.5a8.19,8.19,0,0,1-2.84,6.73,11.51,11.51,0,0,1-7.51,2.33,11.24,11.24,0,0,1-7.41-2.29c-1.84-1.53-2.75-3.8-2.74-6.83V61.72a2.32,2.32,0,0,0-.76-2.06,5.46,5.46,0,0,0-2.73-.56V57.37h11.67V59.1a5.47,5.47,0,0,0-2.74.56A2.32,2.32,0,0,0,335.44,61.72Z"/><path class="cls-1" d="M371,79.47V69.53a3.43,3.43,0,0,0-.74-2.45,3.2,3.2,0,0,0-2.36-.75,8.26,8.26,0,0,0-4.82,1.58V79.47a1.72,1.72,0,0,0,.58,1.55,5.4,5.4,0,0,0,2,.56v1.65H356V81.58a10.52,10.52,0,0,0,1.46-.29,1.83,1.83,0,0,0,.83-.58,1.93,1.93,0,0,0,.35-1.24v-12l-2.46-1.58V65l5.9-1.91h1v3.76c2.37-2.46,4.72-3.68,7.07-3.68q5.31,0,5.31,6v10.3a1.7,1.7,0,0,0,.59,1.55,5.8,5.8,0,0,0,2.07.56v1.65h-9.73V81.58a5.28,5.28,0,0,0,2-.54C370.82,80.8,371,80.28,371,79.47Z"/><path class="cls-1" d="M387.52,63.13V79.47a1.7,1.7,0,0,0,.59,1.55,5.8,5.8,0,0,0,2.07.56v1.65h-9.77V81.58a10.52,10.52,0,0,0,1.46-.29,1.78,1.78,0,0,0,.83-.58,1.87,1.87,0,0,0,.36-1.24V67.39l-2.47-1.55V65l5.9-1.83Zm-2.1-2.22a2.38,2.38,0,0,1-1.84-.81,2.73,2.73,0,0,1-.74-1.94,3.47,3.47,0,0,1,.55-2,2,2,0,0,1,1.77-.81A2.73,2.73,0,0,1,388,58.14a2.88,2.88,0,0,1-.72,2A2.22,2.22,0,0,1,385.42,60.91Z"/><path class="cls-1" d="M411.82,63.49v1.65a12.39,12.39,0,0,0-1.55.68,1.74,1.74,0,0,0-.6.79l-7.46,16.91H401l-7.8-16.91a1.73,1.73,0,0,0-.59-.79,10.73,10.73,0,0,0-1.55-.68V63.49h9.76v1.65a8.16,8.16,0,0,0-2.08.47c-.63.27-.7.92-.24,1.93l4.09,10,4.21-10a4.12,4.12,0,0,0,.25-1.21.75.75,0,0,0-.54-.72,9.72,9.72,0,0,0-2-.47V63.49Z"/><path class="cls-1" d="M422.22,63.13a7.47,7.47,0,0,1,5.94,2.3,8.77,8.77,0,0,1,2,6v1.2h-13A8.07,8.07,0,0,0,418.9,78a5.81,5.81,0,0,0,4.65,2,7.15,7.15,0,0,0,5.85-3l.81.49a7.69,7.69,0,0,1-2.86,4.4,9.64,9.64,0,0,1-12-1.08,10.18,10.18,0,0,1-2.51-7.23,10.82,10.82,0,0,1,2.72-7.51A8.66,8.66,0,0,1,422.22,63.13Zm3.6,7.62a7.27,7.27,0,0,0-1-4.11,3.36,3.36,0,0,0-3-1.52,3.78,3.78,0,0,0-3.16,1.63,7.8,7.8,0,0,0-1.42,4Z"/><path class="cls-1" d="M439.56,63.05v6a20.74,20.74,0,0,1,2.72-4.75,3.55,3.55,0,0,1,2.84-1.22,2.16,2.16,0,0,1,1.44.46v4.07h-.81a9.85,9.85,0,0,0-3.33.5,7.79,7.79,0,0,0-2.86,2.14v9.1c0,.84.22,1.37.65,1.58a10.12,10.12,0,0,0,2.75.6v1.65h-10.5V81.58a10.52,10.52,0,0,0,1.46-.29,1.83,1.83,0,0,0,.83-.58,1.93,1.93,0,0,0,.35-1.24v-12l-2.46-1.58V65l5.86-1.91Z"/><path class="cls-1" d="M455.82,83.59a11.55,11.55,0,0,1-7-1.9l-.21-4.76h1.9c.73,3.19,2.53,4.79,5.38,4.79a4.34,4.34,0,0,0,2.63-.72,2.53,2.53,0,0,0,.95-2.14,2.5,2.5,0,0,0-1.06-2.18,13.23,13.23,0,0,0-3.89-1.55A10.15,10.15,0,0,1,450.28,73a5.22,5.22,0,0,1-1.45-4,5.35,5.35,0,0,1,1.83-4.23,7.67,7.67,0,0,1,5.22-1.6,11.74,11.74,0,0,1,6,1.55V69.1H460Q459.19,65,455.5,65a3.11,3.11,0,0,0-2.21.74,2.78,2.78,0,0,0,.16,4.07,10.47,10.47,0,0,0,3.72,1.57,11.6,11.6,0,0,1,4.35,2.05,5,5,0,0,1,1.6,4,5.57,5.57,0,0,1-2,4.43A7.86,7.86,0,0,1,455.82,83.59Z"/><path class="cls-1" d="M473,63.13V79.47c0,.79.2,1.31.6,1.55a5.67,5.67,0,0,0,2.07.56v1.65h-9.77V81.58a10.52,10.52,0,0,0,1.46-.29,1.78,1.78,0,0,0,.83-.58,1.93,1.93,0,0,0,.35-1.24V67.39l-2.46-1.55V65l5.9-1.83Zm-2.09-2.22a2.4,2.4,0,0,1-1.85-.81,2.72,2.72,0,0,1-.73-1.94,3.4,3.4,0,0,1,.55-2,2,2,0,0,1,1.77-.81,2.73,2.73,0,0,1,2.8,2.75,2.87,2.87,0,0,1-.71,2A2.22,2.22,0,0,1,470.92,60.91Z"/><path class="cls-1" d="M484.43,59.12v4.37h5.38v2.17h-5.38V78.25a2.82,2.82,0,0,0,.65,2.08,3.16,3.16,0,0,0,2.2.62,6.45,6.45,0,0,0,3.05-.79l.47,1.12a8,8,0,0,1-6,2.31q-4.86,0-4.86-4.79V65.66h-2.6V64.28a16.62,16.62,0,0,0,5.72-5.16Z"/><path class="cls-1" d="M491.23,63.49H501v1.65a8.27,8.27,0,0,0-2.09.47c-.62.27-.7.94-.23,2L503,78.23l4.12-10.61a3.91,3.91,0,0,0,.29-1.28.77.77,0,0,0-.53-.73,9.5,9.5,0,0,0-2.05-.47V63.49h7.34v1.65a9.71,9.71,0,0,0-1.54.66,1.94,1.94,0,0,0-.6.81l-8.25,20a9.55,9.55,0,0,1-2,3.16,4,4,0,0,1-2.91,1,3.13,3.13,0,0,1-2.77-1.37V87.28h2a5.77,5.77,0,0,0,2.68-.49,3.63,3.63,0,0,0,1.44-2l.59-1.47-7.48-16.74a1.66,1.66,0,0,0-.59-.79,10.73,10.73,0,0,0-1.55-.68Z"/><rect class="cls-1" x="298.75" y="0.96" width="2.51" height="82.28"/></svg>